<svg xmlns="http://www.w3.org/2000/svg" viewBox="0 0 153.6 115.2">
    <defs>
        <style>
            .cls-1,.cls-22,.cls-8{fill: none;}.cls-2{fill:#4f6b87;}.cls-10,.cls-11,.cls-12,.cls-13,.cls-14,.cls-15,.cls-16,.cls-17,.cls-18,.cls-19,.cls-2,.cls-20,.cls-21,.cls-22,.cls-23,.cls-24,.cls-25,.cls-26,.cls-27,.cls-28,.cls-3,.cls-4,.cls-5,.cls-7,.cls-8,.cls-9{fill-rule:evenodd;}.cls-3{fill:#ebf3fa;}.cls-4{fill:#d8e5f2;}.cls-5{fill:#c0d0e0;}.cls-6{fill:#7e95ad;}.cls-7{fill:#bdd0e3;}.cls-8{stroke:#4f6b87;stroke-miterlimit:22.93;stroke-width:0.57px;}.cls-9{fill:#9e477a;}.cls-10{fill:#c0669a;}.cls-11{fill:#f0a6d1;}.cls-12{fill:#07827c;}.cls-13{fill:#5abdbd;}.cls-14{fill:#88e3e3;}.cls-15{fill:#f8a492;}.cls-16{fill:#f7a491;}.cls-17{fill:#f47458;}.cls-18{fill:#fe875e;}.cls-19{fill:#13375b;}.cls-20{fill:#184655;}.cls-21{fill:#4d6a87;}.cls-23{fill:#3c3c3c;}.cls-24{fill:#6e7f91;}.cls-25{fill:#a16d3c;}.cls-26{fill:#d3782f;}.cls-27{fill:#e69d43;}.cls-28{fill:#2c3a64;}
        </style>
    </defs>
    <g id="_1-2" data-name="1">
        <rect class="cls-1" width="153.6" height="115.2"/>
        <path class="cls-2"
              d="M46.56,15.72h1.56a.32.32,0,0,0,.32-.24L51,7.64a.23.23,0,0,0-.24-.32H49.55a.3.3,0,0,0-.32.24l-1.89,6.23L45.45,7.56a.31.31,0,0,0-.33-.24h-1.2a.23.23,0,0,0-.24.32l2.56,7.84A.31.31,0,0,0,46.56,15.72Z"/>
        <path class="cls-2"
              d="M51.88,8.88h1a.26.26,0,0,0,.28-.29v-1a.25.25,0,0,0-.28-.28h-1a.25.25,0,0,0-.28.28v1a.26.26,0,0,0,.28.29Zm0,6.84h1a.26.26,0,0,0,.28-.29V10a.25.25,0,0,0-.28-.28h-1a.25.25,0,0,0-.28.28v5.43A.26.26,0,0,0,51.88,15.72Z"/>
        <path class="cls-2"
              d="M57.42,9.56a3.07,3.07,0,0,0-3.18,3.16,3.06,3.06,0,0,0,3.22,3.16,2.76,2.76,0,0,0,2.66-1.57c.09-.18,0-.32-.23-.32h-1a.46.46,0,0,0-.35.16,1.52,1.52,0,0,1-1.1.44,1.56,1.56,0,0,1-1.62-1.24H60.1a.27.27,0,0,0,.3-.27c0-.12,0-.24,0-.36a3,3,0,0,0-3-3.17Zm-1.57,2.58A1.49,1.49,0,0,1,57.42,11a1.39,1.39,0,0,1,1.45,1.19Z"/>
        <path class="cls-2"
              d="M64.37,9.63a1.58,1.58,0,0,0-1.35,1V10a.26.26,0,0,0-.29-.29h-1a.26.26,0,0,0-.29.29v5.43a.26.26,0,0,0,.29.28h1a.26.26,0,0,0,.29-.28V12.76a1.31,1.31,0,0,1,1.42-1.45c.14,0,.22-.1.22-.28V9.9c0-.18-.1-.3-.29-.27Z"/>
        <path class="cls-2"
              d="M74.34,9.72h-1a.25.25,0,0,0-.28.28v.46a2.36,2.36,0,0,0-2-.9,3.07,3.07,0,0,0,0,6.14,2.36,2.36,0,0,0,2-.9v.63a1.38,1.38,0,0,1-1.56,1.47,1.36,1.36,0,0,1-1.4-.76.3.3,0,0,0-.31-.25h-1a.25.25,0,0,0-.29.29c.18,1.37,1.54,2.1,3,2.1a2.83,2.83,0,0,0,3.07-2.85V10a.25.25,0,0,0-.28-.28Zm-2.91,4.55a1.64,1.64,0,1,1,1.68-1.64A1.61,1.61,0,0,1,71.43,14.27Z"/>
        <path class="cls-2"
              d="M78.89,9.56a3.07,3.07,0,0,0-3.18,3.16,3.06,3.06,0,0,0,3.22,3.16,2.76,2.76,0,0,0,2.66-1.57c.09-.18,0-.32-.23-.32h-1a.5.5,0,0,0-.36.16A1.48,1.48,0,0,1,79,14.6a1.57,1.57,0,0,1-1.63-1.24h4.25a.27.27,0,0,0,.3-.27c0-.12,0-.24,0-.36a3,3,0,0,0-3-3.17Zm-1.57,2.58A1.49,1.49,0,0,1,78.88,11a1.4,1.4,0,0,1,1.46,1.19Z"/>
        <path class="cls-2"
              d="M90.26,9.72H89.2a.3.3,0,0,0-.32.24l-1.06,3.71L86.65,10a.31.31,0,0,0-.32-.24h-.79a.23.23,0,0,0-.24.32l.44,1.34L85,13.83,83.86,10a.3.3,0,0,0-.32-.24H82.48a.23.23,0,0,0-.24.32L84,15.48a.32.32,0,0,0,.33.24h1a.32.32,0,0,0,.33-.24l.71-2.17.71,2.17a.32.32,0,0,0,.33.24h1a.32.32,0,0,0,.33-.24L90.49,10A.22.22,0,0,0,90.26,9.72Z"/>
        <path class="cls-2"
              d="M91.71,8.88h1A.26.26,0,0,0,93,8.59v-1a.25.25,0,0,0-.28-.28h-1a.26.26,0,0,0-.29.28v1a.26.26,0,0,0,.29.29Zm0,6.84h1a.26.26,0,0,0,.28-.29V10a.25.25,0,0,0-.28-.28h-1a.26.26,0,0,0-.29.28v5.43A.26.26,0,0,0,91.71,15.72Z"/>
        <path class="cls-2"
              d="M97.57,9.56a1.84,1.84,0,0,0-1.64.78V10a.25.25,0,0,0-.28-.28h-1a.25.25,0,0,0-.28.28v5.43a.26.26,0,0,0,.28.29h1a.26.26,0,0,0,.28-.29V12.25c0-.91.48-1.26,1.09-1.26a.9.9,0,0,1,1,1v3.43a.26.26,0,0,0,.28.29h1a.26.26,0,0,0,.29-.29V11.89c0-1.47-.84-2.33-2-2.33Z"/>
        <path class="cls-2"
              d="M104,9.56a1.81,1.81,0,0,0-1.63.78V10a.26.26,0,0,0-.29-.28h-1a.25.25,0,0,0-.28.28v5.43a.26.26,0,0,0,.28.29h1a.26.26,0,0,0,.29-.29V12.25c0-.91.47-1.26,1.08-1.26a.9.9,0,0,1,.95,1v3.43a.26.26,0,0,0,.29.29h1a.26.26,0,0,0,.29-.29V11.89c0-1.47-.83-2.33-2-2.33Z"/>
        <path class="cls-2"
              d="M110,9.72h-.74V8.08a.26.26,0,0,0-.29-.28h-1a.25.25,0,0,0-.28.28V9.72h-.75a.26.26,0,0,0-.29.28v.92a.26.26,0,0,0,.29.29h.75v4.22a.26.26,0,0,0,.28.29h1a.26.26,0,0,0,.29-.29V11.21H110a.26.26,0,0,0,.29-.29V10A.26.26,0,0,0,110,9.72Z"/>
        <path class="cls-3"
              d="M19.73,96.21c-4.16-6.51-11.43-21-5.64-35.75,5.09-13,24.19-20.13,35-13,4.59,3,19.32.1,27.18-12.47,15.29-24.42,68.62-9.59,58.91,27.9-4.36,16.85,11.71,18.63,6.27,33.32Z"/>
        <path class="cls-4"
              d="M141.56,96c1.62,5.17,4,14-29.29,11.87-43.39-2.79-61,3.19-87.07-.87-25.42-4-8.18-4.66-5.46-11Z"/>
        <path class="cls-5"
              d="M132.74,102c4,0,7.18-.49,7.18-1.09s-3.22-1.08-7.18-1.08-7.18.48-7.18,1.08S128.78,102,132.74,102Z"/>
        <rect class="cls-6" x="32.64" y="26.4" width="93.36" height="66.48" rx="3.62"/>
        <path class="cls-7"
              d="M35.28,78h0a2.65,2.65,0,0,1,2.64,2.64v16.1a1.93,1.93,0,0,1,0,.24H32.65a1.93,1.93,0,0,1,0-.24V80.62A2.65,2.65,0,0,1,35.28,78Z"/>
        <path class="cls-5"
              d="M28.52,104c4,0,7.19-.49,7.19-1.09s-3.23-1.08-7.19-1.08-7.18.48-7.18,1.08S24.57,104,28.52,104Z"/>
        <rect class="cls-1" x="30.72" y="96.96" width="9.12" height="1.71" rx="0.85"/>
        <path class="cls-7"
              d="M123.36,78h0A2.65,2.65,0,0,1,126,80.62v16.1a1.93,1.93,0,0,1,0,.24h-5.26a1.93,1.93,0,0,1,0-.24V80.62A2.65,2.65,0,0,1,123.36,78Z"/>
        <rect class="cls-1" x="118.8" y="96.96" width="9.12" height="1.71" rx="0.85"/>
        <path class="cls-8" d="M46,37.38a4.45,4.45,0,1,0-4.44-4.45A4.46,4.46,0,0,0,46,37.38Z"/>
        <path class="cls-8" d="M57.05,37.38a4.45,4.45,0,1,0-4.45-4.45A4.45,4.45,0,0,0,57.05,37.38Z"/>
        <path class="cls-8" d="M68.11,37.38a4.45,4.45,0,1,0-4.45-4.45A4.46,4.46,0,0,0,68.11,37.38Z"/>
        <path class="cls-8" d="M79.32,37.27a4.45,4.45,0,1,0-4.44-4.45A4.45,4.45,0,0,0,79.32,37.27Z"/>
        <path class="cls-8" d="M90.49,37.27A4.45,4.45,0,1,0,86,32.82,4.46,4.46,0,0,0,90.49,37.27Z"/>
        <path class="cls-8" d="M101.71,37.27a4.45,4.45,0,1,0-4.44-4.45A4.46,4.46,0,0,0,101.71,37.27Z"/>
        <path class="cls-8" d="M113.14,37.27a4.45,4.45,0,1,0-4.44-4.45A4.46,4.46,0,0,0,113.14,37.27Z"/>
        <path class="cls-8" d="M46,47.61a4.45,4.45,0,1,0-4.44-4.45A4.46,4.46,0,0,0,46,47.61Z"/>
        <path class="cls-8" d="M57.05,47.61a4.45,4.45,0,1,0-4.45-4.45A4.45,4.45,0,0,0,57.05,47.61Z"/>
        <path class="cls-8" d="M68.11,47.61a4.45,4.45,0,1,0-4.45-4.45A4.46,4.46,0,0,0,68.11,47.61Z"/>
        <path class="cls-8" d="M79.32,47.5a4.45,4.45,0,1,0-4.44-4.44A4.45,4.45,0,0,0,79.32,47.5Z"/>
        <path class="cls-8" d="M90.49,47.5A4.45,4.45,0,1,0,86,43.06,4.46,4.46,0,0,0,90.49,47.5Z"/>
        <path class="cls-8" d="M101.71,47.5a4.45,4.45,0,1,0-4.44-4.44A4.46,4.46,0,0,0,101.71,47.5Z"/>
        <path class="cls-8" d="M113.14,47.5a4.45,4.45,0,1,0-4.44-4.44A4.46,4.46,0,0,0,113.14,47.5Z"/>
        <path class="cls-8" d="M46,58.06a4.45,4.45,0,1,0-4.44-4.45A4.46,4.46,0,0,0,46,58.06Z"/>
        <path class="cls-8" d="M57.05,58.06a4.45,4.45,0,1,0-4.45-4.45A4.45,4.45,0,0,0,57.05,58.06Z"/>
        <path class="cls-8" d="M68.11,58.06a4.45,4.45,0,1,0-4.45-4.45A4.46,4.46,0,0,0,68.11,58.06Z"/>
        <path class="cls-8" d="M79.32,58a4.45,4.45,0,1,0-4.44-4.44A4.45,4.45,0,0,0,79.32,58Z"/>
        <path class="cls-8" d="M90.49,58A4.45,4.45,0,1,0,86,53.51,4.46,4.46,0,0,0,90.49,58Z"/>
        <path class="cls-8" d="M101.71,58a4.45,4.45,0,1,0-4.44-4.44A4.46,4.46,0,0,0,101.71,58Z"/>
        <path class="cls-8" d="M113.14,58a4.45,4.45,0,1,0-4.44-4.44A4.46,4.46,0,0,0,113.14,58Z"/>
        <path class="cls-8" d="M46,68.64a4.45,4.45,0,1,0-4.44-4.45A4.46,4.46,0,0,0,46,68.64Z"/>
        <path class="cls-8" d="M57.05,68.64a4.45,4.45,0,1,0-4.45-4.45A4.45,4.45,0,0,0,57.05,68.64Z"/>
        <path class="cls-8" d="M68.11,68.64a4.45,4.45,0,1,0-4.45-4.45A4.46,4.46,0,0,0,68.11,68.64Z"/>
        <path class="cls-8" d="M79.32,68.53a4.45,4.45,0,1,0-4.44-4.45A4.45,4.45,0,0,0,79.32,68.53Z"/>
        <path class="cls-8" d="M90.49,68.53A4.45,4.45,0,1,0,86,64.08,4.46,4.46,0,0,0,90.49,68.53Z"/>
        <path class="cls-8" d="M101.71,68.53a4.45,4.45,0,1,0-4.44-4.45A4.46,4.46,0,0,0,101.71,68.53Z"/>
        <path class="cls-8" d="M113.14,68.53a4.45,4.45,0,1,0-4.44-4.45A4.46,4.46,0,0,0,113.14,68.53Z"/>
        <path class="cls-8" d="M46,79.11a4.45,4.45,0,1,0-4.44-4.44A4.46,4.46,0,0,0,46,79.11Z"/>
        <path class="cls-8" d="M57.05,79.11a4.45,4.45,0,1,0-4.45-4.44A4.45,4.45,0,0,0,57.05,79.11Z"/>
        <path class="cls-8" d="M68.11,79.11a4.45,4.45,0,1,0-4.45-4.44A4.46,4.46,0,0,0,68.11,79.11Z"/>
        <path class="cls-8" d="M79.32,79a4.45,4.45,0,1,0-4.44-4.44A4.44,4.44,0,0,0,79.32,79Z"/>
        <path class="cls-8" d="M90.49,79A4.45,4.45,0,1,0,86,74.56,4.45,4.45,0,0,0,90.49,79Z"/>
        <path class="cls-8" d="M101.71,79a4.45,4.45,0,1,0-4.44-4.44A4.45,4.45,0,0,0,101.71,79Z"/>
        <path class="cls-8" d="M113.14,79a4.45,4.45,0,1,0-4.44-4.44A4.45,4.45,0,0,0,113.14,79Z"/>
        <path class="cls-8" d="M46,89.7a4.45,4.45,0,1,0-4.44-4.45A4.46,4.46,0,0,0,46,89.7Z"/>
        <path class="cls-8" d="M57.05,89.7a4.45,4.45,0,1,0-4.45-4.45A4.45,4.45,0,0,0,57.05,89.7Z"/>
        <path class="cls-8" d="M68.11,89.7a4.45,4.45,0,1,0-4.45-4.45A4.46,4.46,0,0,0,68.11,89.7Z"/>
        <path class="cls-8" d="M79.32,89.59a4.45,4.45,0,1,0-4.44-4.44A4.45,4.45,0,0,0,79.32,89.59Z"/>
        <path class="cls-8" d="M90.49,89.59A4.45,4.45,0,1,0,86,85.15,4.46,4.46,0,0,0,90.49,89.59Z"/>
        <path class="cls-8" d="M101.71,89.59a4.45,4.45,0,1,0-4.44-4.44A4.46,4.46,0,0,0,101.71,89.59Z"/>
        <path class="cls-8" d="M113.14,89.59a4.45,4.45,0,1,0-4.44-4.44A4.46,4.46,0,0,0,113.14,89.59Z"/>
        <path class="cls-9" d="M79.31,89.4a4.26,4.26,0,1,0-4.26-4.26A4.27,4.27,0,0,0,79.31,89.4Z"/>
        <path class="cls-10" d="M78.9,80.9a2.75,2.75,0,0,1,.41,0A4.26,4.26,0,0,1,83.57,85a3.66,3.66,0,1,1-4.67-4.1Z"/>
        <path class="cls-11" d="M80.2,84a1.21,1.21,0,1,0-1.32-1.2A1.27,1.27,0,0,0,80.2,84Z"/>
        <path class="cls-9" d="M90.46,89.4a4.26,4.26,0,1,0-4.26-4.26A4.28,4.28,0,0,0,90.46,89.4Z"/>
        <path class="cls-10" d="M90,80.9a2.82,2.82,0,0,1,.42,0A4.25,4.25,0,0,1,94.71,85,3.66,3.66,0,1,1,90,80.9Z"/>
        <path class="cls-11" d="M91.34,84A1.21,1.21,0,1,0,90,82.79,1.27,1.27,0,0,0,91.34,84Z"/>
        <path class="cls-9" d="M113.14,89.4a4.26,4.26,0,1,0-4.26-4.26A4.27,4.27,0,0,0,113.14,89.4Z"/>
        <path class="cls-10" d="M112.72,80.9a3,3,0,0,1,.42,0A4.26,4.26,0,0,1,117.4,85a3.66,3.66,0,1,1-4.68-4.1Z"/>
        <path class="cls-11" d="M114,84a1.21,1.21,0,1,0-1.32-1.2A1.27,1.27,0,0,0,114,84Z"/>
        <path class="cls-12" d="M79.31,78.85a4.26,4.26,0,1,0-4.26-4.26A4.26,4.26,0,0,0,79.31,78.85Z"/>
        <path class="cls-13" d="M78.9,70.35l.41,0a4.26,4.26,0,0,1,4.26,4.12,3.66,3.66,0,1,1-4.67-4.1Z"/>
        <path class="cls-14" d="M80.2,73.45a1.21,1.21,0,1,0-1.32-1.2A1.27,1.27,0,0,0,80.2,73.45Z"/>
        <path class="cls-12" d="M68.11,89.51a4.26,4.26,0,1,0-4.26-4.26A4.27,4.27,0,0,0,68.11,89.51Z"/>
        <path class="cls-13" d="M67.69,81l.42,0a4.26,4.26,0,0,1,4.25,4.12A3.66,3.66,0,1,1,67.69,81Z"/>
        <path class="cls-14" d="M69,84.11a1.21,1.21,0,1,0-1.32-1.2A1.27,1.27,0,0,0,69,84.11Z"/>
        <path class="cls-15"
              d="M22.55,74.28a.94.94,0,0,0,.12.3,11,11,0,0,0,1.18,1.56l.63-1.43s-.1-.45-.28-1.09A3.62,3.62,0,0,0,22.55,74.28Z"/>
        <path class="cls-12"
              d="M26.19,73s-3.54,1.52-3.66,1.49A9.53,9.53,0,0,1,21.06,70a2,2,0,0,1,2.2-2c.59.12.58.28,1.44,1.54A14.39,14.39,0,0,1,26.19,73Z"/>
        <path class="cls-16"
              d="M29.22,100.4l-.09,1.4a7.45,7.45,0,0,0-.15.77c0,.6,2.86-.51,2.22-.78-.06,0-.36-.21-.38-.41s-.1-1-.1-1Z"/>
        <path class="cls-10"
              d="M31.2,101.78s-.68.19-1,.24-.8-.35-1-.24-.26,1.15-.26,1.15a22.55,22.55,0,0,0,4.62,0C33.9,102.8,32.57,102.22,31.2,101.78Z"/>
        <path class="cls-16"
              d="M23.35,100.4l-.08,1.4a7.45,7.45,0,0,0-.15.77c0,.6,2.86-.51,2.22-.78-.06,0-.45-.34-.47-.55s0-.82,0-.82Z"/>
        <path class="cls-10"
              d="M25.33,101.78s-.67.19-1,.24-.79-.35-1-.24-.28,1.15-.28,1.15,3.63.35,4.65,0C28,102.79,26.71,102.22,25.33,101.78Z"/>
        <path class="cls-16"
              d="M24.23,75.05l2.52-3.54s0-.09.07-.19c.13-.35.39-1.08.62-1.81h0c.07-.26.22-.7.37-1.13s.37-1.07.38-1.17,0,0,0-.09a9.64,9.64,0,0,1-.26-1.06c0-.16-.06-.54.13-.54s.16.38.29.62a5.51,5.51,0,0,0,.21-.8l0-.75c0-.06,0-.47.16-.47h0c.18,0,.18.45.26,1.2a2.8,2.8,0,0,0,.06-.28,2.83,2.83,0,0,1,.07-.4c0-.21,0-.53.2-.5s.1.47.1.47v.64c0-.16.11-.85.29-.85s.15.18.15.33-.09.84-.1.93c.07-.12.15-.78.22-.78.28,0,.18.94.07,1.19a.63.63,0,0,0,0,.13,2.23,2.23,0,0,1-.24.7c-.18.3-.42.78-.46.85s-.11.69-.21,1.37q-.07.43-.15.93h0c0,.07-.06.3-.26,1.15-.27,1.16-.3,1.21-.31,1.24-.12.21-2.84,3.9-3,4.06l-.06.09Z"/>
        <path class="cls-17" d="M28.92,66.8s-.2-.52-.57-.52a.41.41,0,0,1,.38.06A.69.69,0,0,1,28.92,66.8Z"/>
        <path class="cls-16"
              d="M23.62,65.79l-.33,2s1.24,1,2,.79.19-1,.19-1A5.16,5.16,0,0,1,25.22,66C25.32,65.41,23.62,65.79,23.62,65.79Z"/>
        <path class="cls-18"
              d="M23.85,66.41a4.74,4.74,0,0,0,1.4.39,2.82,2.82,0,0,1,0-.81c.05-.27-.29-.33-.67-.32s-.93.12-.93.12l-.06.39A1,1,0,0,0,23.85,66.41Z"/>
        <path class="cls-16"
              d="M22.06,63.42s.49,2.29,1.32,2.69,2.09.19,2.32-.43-.69-3-1.86-3.32S22.06,63.42,22.06,63.42Z"/>
        <path class="cls-19"
              d="M23,61.31A2.63,2.63,0,0,0,22,62.5a1.68,1.68,0,0,0-.88,1.34A1.88,1.88,0,0,0,22.49,66a1.29,1.29,0,0,1,1,.81l.1-.6a2.41,2.41,0,0,0-.47-.79c-.28-.26.13-.64.17-1s-.15-.71-.11-1.1a2.77,2.77,0,0,1,.93-.89C24.87,62.15,23.88,60.81,23,61.31Z"/>
        <path class="cls-16"
              d="M23.38,64.84c.11.26.06.53-.1.59s-.39-.11-.5-.38-.06-.53.1-.58S23.27,64.57,23.38,64.84Z"/>
        <path class="cls-15" d="M26.5,75.11l4.87-.8s-.56-1.39-.76-1.39-3.68,1.52-3.68,1.52l-.28.55Z"/>
        <path class="cls-20"
              d="M24,78.44a16.4,16.4,0,0,0-.29,4.13c.2,1.78.22,8.11.22,8.11l-.76,10.12,1.79,0S27.09,90.72,27.05,91s.71-7.12.71-7.12l-2.53-5.64Z"/>
        <path class="cls-21"
              d="M24.48,78.33a7.85,7.85,0,0,0,.08,3C25,82.3,28,91.4,28,92.14s1,9,1,9l2.08-.06.45-9.12-.94-11.46-.92-2.9Z"/>
        <path class="cls-16"
              d="M23.29,67.84a1.89,1.89,0,0,0,1,.3,3.26,3.26,0,0,0,1.15-.48l-.09-.32s-1.24-.18-1.27-.16Z"/>
        <path class="cls-15"
              d="M28.77,72.85s1.84,1.74,2.67,1.44,1.18-1.31-.85-2.8C28.78,70.17,28.77,72.85,28.77,72.85Z"/>
        <path class="cls-13"
              d="M30,75c-.27-1.48-2.26-6.12-2.42-7-.07-.41-1.14-.42-2.16-.37s-2.15.19-2.15.19a3.32,3.32,0,0,0-1.37.55c-.42.4-.53,1.48.07,3.54.48,1.63,1.07,2.53,1.36,3.71.06.4.11.79.18,1.25.11,1.77,0,4.11,0,4.11s5.18,1.08,7.12-.55C30.65,80.45,30.3,76.52,30,75Z"/>
        <path class="cls-13"
              d="M31.34,71.79s-2,1.68-2.15,1.68-2.91-2.08-3.56-3.79a1.49,1.49,0,0,1,1.26-2c.6,0,.87.15,2.05,1.15A15.39,15.39,0,0,1,31.34,71.79Z"/>
        <path class="cls-22" d="M24.59,65.38a.43.43,0,0,0,.59.12c.47-.23.28-.59.28-.59Z"/>
        <path class="cls-23"
              d="M129.91,101H126.1a.8.8,0,0,1,.48-.24c.59-.09,1.6-.43,1.83-1.18a.19.19,0,0,1,0-.07c.18-.8,1.48.24,1.48.24v.09A4.52,4.52,0,0,1,129.91,101Z"/>
        <path class="cls-24"
              d="M126.74,79.8s.2,2.47.43,5.44c.32,4,.7,9,.73,9.94.07,1.63.33,4.24.33,4.24a2.06,2.06,0,0,0,1.86.36,42.26,42.26,0,0,0,1.42-7.67c0-.06,0-.13,0-.19.29-4,.75-12.47.75-12.47Z"/>
        <path class="cls-2" d="M126.74,79.8s.2,2.47.43,5.44l4.34,6.87c0-.06,0-.13,0-.19.29-4,.75-12.47.75-12.47Z"/>
        <path class="cls-24"
              d="M127.64,80.09s3.58,9,5.93,13.16,3.08,5.39,3.08,5.39,1.34-.54,1.47-.91c0,0-.9-8.12-2.48-10.1a15.06,15.06,0,0,1-2-5.66c0-1.17-.31-3.5-.31-3.5Z"/>
        <path class="cls-16"
              d="M129.48,66.27a11.12,11.12,0,0,1-.17-1.5l1.81-1.46a3.67,3.67,0,0,0,1.22,3s-2.41,1.19-3.81.74A3.51,3.51,0,0,1,129.48,66.27Z"/>
        <path class="cls-16"
              d="M128.89,64.74s2.3.38,2.52-1.06.66-2.36-.81-2.66-1.83.2-2,.66S128.29,64.6,128.89,64.74Z"/>
        <path class="cls-25"
              d="M120.79,67.71l-.49-.31a1.25,1.25,0,0,0-1.66-.34s-.41.27-.14.49a6.73,6.73,0,0,1,.59.41,1.15,1.15,0,0,0,1.21.26l.41,0Z"/>
        <path class="cls-26"
              d="M120.2,67.8c.13-.39.19-.43.19-.43s4,.47,4.35.5,5.57-1,5.57-1l2.45,3s-7.23.27-8.18.18a17.45,17.45,0,0,1-4.4-1.6A1.25,1.25,0,0,1,120.2,67.8Z"/>
        <path class="cls-27"
              d="M133.62,78.93c0,.16-.31.32-.45.39a9.91,9.91,0,0,1-3.09.89,23.61,23.61,0,0,1-3.35-.15.2.2,0,0,1-.14-.06s-.07-1.61,0-3.6a1.93,1.93,0,0,1,0-.24v0c0-.21,0-.42,0-.64q0-.87.06-1.77c0-.87.09-1.74.16-2.5a14,14,0,0,1,.29-2,4.75,4.75,0,0,1,1.51-2.41l.48-.43a2.3,2.3,0,0,0,1.51-.18c.55-.27,1.15-.57,1.25-.5a5.47,5.47,0,0,1,1.5,3.43,16.88,16.88,0,0,1,.2,2.84q0,.57,0,1.17a38.39,38.39,0,0,0,.07,5C133.6,78.52,133.61,78.76,133.62,78.93Z"/>
        <path class="cls-26"
              d="M131.88,69.13s-1.12,5.21-5.31,6.37q0-.87.06-1.77c0-.87.09-1.74.16-2.5a1,1,0,0,1,.21-.09C128.42,70.67,131.88,69.13,131.88,69.13Z"/>
        <path class="cls-27"
              d="M120.35,71.38c0-.45.25-.49.25-.49s4.54-.3,4.93-.38a47.22,47.22,0,0,0,4-3.07s1.4-1.26,2.38-.84a1.92,1.92,0,0,1,1.16,1.77A2,2,0,0,1,132,70.25a51.55,51.55,0,0,1-5.61,2.38c-1.65.28-5.88-.63-5.88-.63A1.36,1.36,0,0,1,120.35,71.38Z"/>
        <path class="cls-28"
              d="M128.58,61.68a1.34,1.34,0,0,1-.32-1.77,3.61,3.61,0,0,0,1.78,0c1.05-.24,2,.1,2.1.47a.84.84,0,0,1,.45.77,8.71,8.71,0,0,1-1.18,2.53s-.26-.32-.19-.55.29-.72,0-.72-.37.41-.48.25.09-.85-.23-1S129,61.89,128.58,61.68Z"/>
        <path class="cls-9" d="M117.08,71.63a4.26,4.26,0,1,0-4.26-4.26A4.26,4.26,0,0,0,117.08,71.63Z"/>
        <path class="cls-10" d="M116.66,63.13l.42,0a4.26,4.26,0,0,1,4.26,4.12,3.66,3.66,0,1,1-4.68-4.1Z"/>
        <path class="cls-11" d="M118,66.23a1.21,1.21,0,1,0-1.32-1.2A1.27,1.27,0,0,0,118,66.23Z"/>
        <path class="cls-16"
              d="M120.8,71.07l-.6-.1a1.47,1.47,0,0,0-1.87-.43s-.47.26-.16.51.23.11.66.47a1.38,1.38,0,0,0,1.36.32l.47,0Z"/>
        <path class="cls-23"
              d="M138.65,99.09c-.13.44-.73.74-.81,1.27a1.19,1.19,0,0,1-.26.61H135.7c0-.1.1-.21.34-.27.53-.11.72-.74.69-1.33,0-.25,0-.53,0-.77s.05-.6.05-.6l1.11-.26.11.15.12.14S138.78,98.65,138.65,99.09Z"/>
    </g>
</svg>